<?xml version="1.0" encoding="iso-8859-1"?>
<!-- Generator: Adobe Illustrator 12.0.0, SVG Export Plug-In . SVG Version: 6.00 Build 51448)  -->
<!DOCTYPE svg PUBLIC "-//W3C//DTD SVG 1.1//EN" "http://www.w3.org/Graphics/SVG/1.1/DTD/svg11.dtd" [
	<!ENTITY ns_svg "http://www.w3.org/2000/svg">
	<!ENTITY ns_xlink "http://www.w3.org/1999/xlink">
]>
<svg  version="1.1" id="&#x30EC;&#x30A4;&#x30E4;&#x30FC;_1" xmlns="&ns_svg;" xmlns:xlink="&ns_xlink;" width="64" height="55.015"
	 viewBox="0 0 64 55.015" style="overflow:visible;enable-background:new 0 0 64 55.015;" xml:space="preserve">
<g>
<path id="left" d="M16.429,36.976l-11.07-8.877l11.07-8.877c0.841-0.812,0.841-2.13,0-2.942c-0.84-0.812-2.2-0.812-3.041,0L0.611,26.522
	c-0.448,0.434-0.638,1.01-0.608,1.577c-0.03,0.566,0.161,1.142,0.608,1.575l12.777,10.242c0.84,0.813,2.201,0.813,3.041,0
	C17.271,39.104,17.271,37.787,16.429,36.976z"/>
<path id="center" d="M46.843,0.278c-1.021-0.573-2.324-0.232-2.915,0.76L17.269,51.983c-0.588,0.992-0.346,2.509,0.781,2.833
	c1.378,0.393,2.324,0.231,2.913-0.76L47.621,3.11C48.213,2.117,47.864,0.85,46.843,0.278z"/>
<path id="right" d="M63.388,26.522L50.612,16.277c-0.842-0.812-2.202-0.812-3.043,0c-0.84,0.812-0.84,2.13,0,2.942l11.071,8.877l-11.071,8.877
	c-0.84,0.812-0.84,2.13,0,2.942c0.841,0.813,2.201,0.813,3.043,0L63.39,29.672c0.448-0.434,0.637-1.009,0.607-1.576
	C64.026,27.532,63.835,26.956,63.388,26.522z"/>
</g>
</svg>
