<?xml version="1.0" encoding="iso-8859-1"?>
<!-- Generator: Adobe Illustrator 12.0.0, SVG Export Plug-In . SVG Version: 6.00 Build 51448)  -->
<!DOCTYPE svg PUBLIC "-//W3C//DTD SVG 1.1//EN" "http://www.w3.org/Graphics/SVG/1.1/DTD/svg11.dtd" [
	<!ENTITY ns_svg "http://www.w3.org/2000/svg">
	<!ENTITY ns_xlink "http://www.w3.org/1999/xlink">
]>
<svg  version="1.1" id="&#x30EC;&#x30A4;&#x30E4;&#x30FC;_1" xmlns="&ns_svg;" xmlns:xlink="&ns_xlink;" width="24.848" height="31"
	 viewBox="0 0 24.848 31" style="overflow:visible;enable-background:new 0 0 24.848 31;" xml:space="preserve">
<g>
<path id="bottom" d="M23.619,26.867H1.239C0.556,26.867,0,27.428,0,28.106v1.654C0,30.445,0.56,31,1.239,31h22.37
	c0.684,0,1.239-0.561,1.239-1.239v-1.654C24.862,27.42,24.3,26.867,23.619,26.867z"/>
<path id="center" d="M11.562,24.65c0.243,0.242,0.56,0.365,0.874,0.365c0.317,0,0.634-0.123,0.873-0.365l8.476-8.477
	c0.48-0.48,0.48-1.265,0-1.754l-1.174-1.173c-0.479-0.481-1.265-0.481-1.755,0L14.5,17.608V1.239C14.5,0.556,13.939,0,13.26,0
	h-1.654c-0.684,0-1.239,0.551-1.239,1.239v16.373l-4.361-4.361c-0.48-0.48-1.27-0.48-1.755,0l-1.173,1.173
	c-0.481,0.481-0.481,1.27,0,1.756L11.562,24.65z"/>
	</g>
</svg>
